<svg xmlns="http://www.w3.org/2000/svg" viewBox="0 0 64 64">
  <defs>
    <linearGradient id="calcBg" x1="0" y1="0" x2="0" y2="1">
      <stop offset="0%" stop-color="#f2f4f8" />
      <stop offset="55%" stop-color="#d5dbe5" />
      <stop offset="100%" stop-color="#aeb6c3" />
    </linearGradient>
    <linearGradient id="calcFrame" x1="0" y1="0" x2="0" y2="1">
      <stop offset="0%" stop-color="#5d6a7e" />
      <stop offset="100%" stop-color="#2f3746" />
    </linearGradient>
    <linearGradient id="calcScreen" x1="0" y1="0" x2="0" y2="1">
      <stop offset="0%" stop-color="#a6d9f8" />
      <stop offset="100%" stop-color="#4f8ecc" />
    </linearGradient>
  </defs>
  <rect x="6" y="6" width="52" height="52" rx="12" fill="url(#calcBg)" stroke="#49546a" stroke-width="2" />
  <path d="M10 22c5-3.5 10-5 22-5s17 1.5 22 5" fill="none" stroke="rgba(255,255,255,0.6)" stroke-width="2" stroke-linecap="round" />
  <rect x="18" y="14" width="28" height="36" rx="6" fill="url(#calcFrame)" stroke="#1f2633" stroke-width="1.5" />
  <rect x="21" y="17" width="22" height="10" rx="3" fill="url(#calcScreen)" stroke="#224e7a" stroke-width="1.2" />
  <g fill="#f2f5fb">
    <rect x="21" y="30" width="6" height="6" rx="1.2" />
    <rect x="28" y="30" width="6" height="6" rx="1.2" />
    <rect x="35" y="30" width="6" height="6" rx="1.2" />
    <rect x="21" y="37" width="6" height="6" rx="1.2" />
    <rect x="28" y="37" width="6" height="6" rx="1.2" />
    <rect x="35" y="37" width="6" height="6" rx="1.2" />
    <rect x="21" y="44" width="6" height="6" rx="1.2" />
    <rect x="28" y="44" width="6" height="6" rx="1.2" />
  </g>
  <rect x="35" y="44" width="6" height="6" rx="1.2" fill="#ffd36b" />
  <rect x="32" y="24" width="11" height="1.8" rx="0.9" fill="#c5e6ff" />
</svg>
