<svg xmlns="http://www.w3.org/2000/svg" viewBox="0 0 64 64">
  <defs>
    <linearGradient id="paintBg" x1="0" y1="0" x2="0" y2="1">
      <stop offset="0%" stop-color="#f7faff" />
      <stop offset="55%" stop-color="#dce9ff" />
      <stop offset="100%" stop-color="#b7d4ff" />
    </linearGradient>
    <linearGradient id="paintPalette" x1="0" y1="0" x2="0" y2="1">
      <stop offset="0%" stop-color="#f5e3c6" />
      <stop offset="100%" stop-color="#d5a46a" />
    </linearGradient>
  </defs>
  <rect x="6" y="6" width="52" height="52" rx="12" fill="url(#paintBg)" stroke="#4670bf" stroke-width="2" />
  <path d="M10 22c4-3 10-5 22-5s18 2 22 5" fill="none" stroke="rgba(255,255,255,0.7)" stroke-width="2" stroke-linecap="round" />
  <path d="M32 18c10.5 0 18 6.7 18 14 0 4-2.3 7.1-5.8 7.1-1.8 0-3-0.8-4.5-0.8-1.8 0-3.2 1.4-3.2 3.2 0 1.8 1.2 3.2 3.2 3.2 2.9 0 4.3 1.8 4.3 3.4 0 2-2.7 3.9-6.8 3.9-11 0-21.2-7-21.2-17.6C16 24.7 22.8 18 32 18z" fill="url(#paintPalette)" stroke="#a97139" stroke-width="1.8" />
  <circle cx="40" cy="24" r="3.2" fill="#67b7ff" />
  <circle cx="46" cy="32" r="3" fill="#ff9eb5" />
  <circle cx="34" cy="28" r="2.8" fill="#8cd475" />
  <circle cx="28" cy="34" r="2.8" fill="#f7d55b" />
</svg>
