<svg xmlns="http://www.w3.org/2000/svg" viewBox="0 0 64 64">
  <defs>
    <linearGradient id="skillsBg" x1="0" y1="0" x2="0" y2="1">
      <stop offset="0%" stop-color="#f5f2ff" />
      <stop offset="55%" stop-color="#e0d7ff" />
      <stop offset="100%" stop-color="#c1b0f8" />
    </linearGradient>
    <linearGradient id="skillsGear" x1="0" y1="0" x2="0" y2="1">
      <stop offset="0%" stop-color="#8d7ef0" />
      <stop offset="100%" stop-color="#5640cc" />
    </linearGradient>
  </defs>
  <rect x="6" y="6" width="52" height="52" rx="12" fill="url(#skillsBg)" stroke="#4f3cb8" stroke-width="2" />
  <path d="M10 22c4-3 10-5 22-5s18 2 22 5" fill="none" stroke="rgba(255,255,255,0.68)" stroke-width="2" stroke-linecap="round" />
  <path d="M32 20l3.2 2 3.8-.8 1.6 3.4 3.5 1-0.2 3.9 3 2.8-2.3 3.2 1 3.7-3.6 1.4-1.4 3.6-3.8-.5-3 2.6-3-2.6-3.8.5-1.4-3.6-3.6-1.4 1-3.7-2.3-3.2 3-2.8-0.2-3.9 3.5-1 1.6-3.4 3.8.8z" fill="url(#skillsGear)" stroke="#3d2ea1" stroke-width="1.6" stroke-linejoin="round" />
  <circle cx="32" cy="32" r="5" fill="#fff" stroke="#6a55da" stroke-width="1.4" />
</svg>
