<svg xmlns="http://www.w3.org/2000/svg" viewBox="0 0 64 64">
  <defs>
    <linearGradient id="pubBg" x1="0" y1="0" x2="0" y2="1">
      <stop offset="0%" stop-color="#f3f6ff" />
      <stop offset="55%" stop-color="#dfe7ff" />
      <stop offset="100%" stop-color="#b7c7f5" />
    </linearGradient>
    <linearGradient id="pubBook" x1="0" y1="0" x2="0" y2="1">
      <stop offset="0%" stop-color="#6b8df0" />
      <stop offset="100%" stop-color="#3453c6" />
    </linearGradient>
  </defs>
  <rect x="6" y="6" width="52" height="52" rx="12" fill="url(#pubBg)" stroke="#3b57b6" stroke-width="2" />
  <path d="M10 22c4-3 10-5 22-5s18 2 22 5" fill="none" stroke="rgba(255,255,255,0.7)" stroke-width="2" stroke-linecap="round" />
  <path d="M24 18h12l10 6v22c0 2.8-2.2 5-5 5H24c-2.8 0-5-2.2-5-5V23c0-2.8 2.2-5 5-5z" fill="#ffffff" stroke="#3f5fc1" stroke-width="1.6" />
  <path d="M36 18v28" stroke="#3f5fc1" stroke-width="1.6" />
  <path d="M26 24h6M26 30h6M26 36h6" stroke="url(#pubBook)" stroke-width="2.4" stroke-linecap="round" />
  <path d="M38 24h6" stroke="#9bb4f3" stroke-width="2" stroke-linecap="round" />
</svg>
