<svg xmlns="http://www.w3.org/2000/svg" viewBox="0 0 64 64">
  <defs>
    <linearGradient id="summaryBg" x1="0" y1="0" x2="0" y2="1">
      <stop offset="0%" stop-color="#f8f7ff" />
      <stop offset="55%" stop-color="#e2ddff" />
      <stop offset="100%" stop-color="#c6bbf8" />
    </linearGradient>
    <linearGradient id="summaryAccent" x1="0" y1="0" x2="0" y2="1">
      <stop offset="0%" stop-color="#8a6de8" />
      <stop offset="100%" stop-color="#4f39c6" />
    </linearGradient>
  </defs>
  <rect x="6" y="6" width="52" height="52" rx="12" fill="url(#summaryBg)" stroke="#4d3fb8" stroke-width="2" />
  <path d="M10 22c4-3 10-5 22-5s18 2 22 5" fill="none" stroke="rgba(255,255,255,0.7)" stroke-width="2" stroke-linecap="round" />
  <path d="M20 18h18l8 8v20a4 4 0 0 1-4 4H20a4 4 0 0 1-4-4V22a4 4 0 0 1 4-4z" fill="#ffffff" stroke="#5840bf" stroke-width="1.6" />
  <path d="M38 18v8h8" fill="#ddd5ff" stroke="#5840bf" stroke-width="1.2" stroke-linejoin="round" />
  <path d="M23 30h18M23 36h18M23 42h12" stroke="url(#summaryAccent)" stroke-width="2.4" stroke-linecap="round" />
</svg>
