<svg xmlns="http://www.w3.org/2000/svg" viewBox="0 0 64 64">
  <defs>
    <linearGradient id="expBg" x1="0" y1="0" x2="0" y2="1">
      <stop offset="0%" stop-color="#edf5ff" />
      <stop offset="55%" stop-color="#ccdffe" />
      <stop offset="100%" stop-color="#9cbffd" />
    </linearGradient>
    <linearGradient id="expCase" x1="0" y1="0" x2="0" y2="1">
      <stop offset="0%" stop-color="#4a8cf3" />
      <stop offset="100%" stop-color="#225ac9" />
    </linearGradient>
  </defs>
  <rect x="6" y="6" width="52" height="52" rx="12" fill="url(#expBg)" stroke="#2d66c1" stroke-width="2" />
  <path d="M10 22c4-3 10-5 22-5s18 2 22 5" fill="none" stroke="rgba(255,255,255,0.68)" stroke-width="2" stroke-linecap="round" />
  <rect x="16" y="22" width="32" height="22" rx="6" fill="url(#expCase)" stroke="#1c4d9c" stroke-width="1.8" />
  <path d="M20 22v-2c0-3 2-5 5-5h14c3 0 5 2 5 5v2" fill="#3b79db" stroke="#1c4d9c" stroke-width="1.5" />
  <rect x="22" y="30" width="20" height="6" rx="3" fill="#fff4ce" stroke="#d29b32" stroke-width="1.2" />
  <circle cx="26" cy="33" r="1.4" fill="#d29b32" />
  <circle cx="38" cy="33" r="1.4" fill="#d29b32" />
  <path d="M16 32h32" stroke="#204f9e" stroke-width="1.6" stroke-linecap="round" />
</svg>
